{"accessors" : [{"bufferView" : 0, "byteOffset" : 0, "componentType" : 5123, "count" : 768, "type" : "SCALAR", "max" : [685], "min" : [0]}, {"bufferView" : 1, "byteOffset" : 0, "componentType" : 5126, "count" : 686, "type" : "VEC3", "max" : [3, 1.5, 5.5], "min" : [-3, -1.5625, 0], "name" : "POSITION"}, {"bufferView" : 1, "byteOffset" : 12, "componentType" : 5126, "count" : 686, "type" : "VEC2", "max" : [15.239999771118164, 13.970000267028809], "min" : [-7.619999885559082, -13.970000267028809], "name" : "TEXCOORD_0"}, {"bufferView" : 1, "byteOffset" : 20, "componentType" : 5126, "count" : 686, "type" : "VEC3", "max" : [1.0000044107437134, 1.0000044107437134, 1.0000044107437134], "min" : [-1.0000044107437134, -1.0000044107437134, -1.0000044107437134], "name" : "NORMAL"}, {"bufferView" : 0, "byteOffset" : 1536, "componentType" : 5123, "count" : 2604, "type" : "SCALAR", "max" : [2235], "min" : [0]}, {"bufferView" : 2, "byteOffset" : 0, "componentType" : 5126, "count" : 2236, "type" : "VEC3", "max" : [2.46417498588562, 0, 6.273649215698242], "min" : [-1.4868450164794922, -0.25, 3.057744026184082], "name" : "POSITION"}, {"bufferView" : 2, "byteOffset" : 12, "componentType" : 5126, "count" : 2236, "type" : "VEC2", "max" : [5.261019229888916, 8.72996997833252], "min" : [-5.261019229888916, -6.899465084075928], "name" : "TEXCOORD_0"}, {"bufferView" : 2, "byteOffset" : 20, "componentType" : 5126, "count" : 2236, "type" : "VEC3", "max" : [0.999994158744812, 1.0000044107437134, 0.999918520450592], "min" : [-0.9999926090240479, -1.0000044107437134, -1.0000042915344238], "name" : "NORMAL"}], "asset" : {"generator" : "Aspose.3D 22.10", "version" : "2.0"}, "buffers" : [{"uri" : "data:application/octet-stream;base64,", "byteLength" : 114660}], "bufferViews" : [{"buffer" : 0, "byteOffset" : 0, "byteLength" : 6744, "target" : 34963}, {"buffer" : 0, "byteOffset" : 6748, "byteLength" : 24576, "byteStride" : 32, "target" : 34962}, {"buffer" : 0, "byteOffset" : 31328, "byteLength" : 83328, "byteStride" : 32, "target" : 34962}], "meshes" : [{"primitives" : [{"attributes" : {"POSITION" : 1, "TEXCOORD_0" : 2, "NORMAL" : 3}, "indices" : 0, "mode" : 4}], "name" : ""}, {"primitives" : [{"attributes" : {"POSITION" : 5, "TEXCOORD_0" : 6, "NORMAL" : 7}, "indices" : 4, "mode" : 4}], "name" : ""}], "nodes" : [{"mesh" : 0, "name" : "Body1"}, {"mesh" : 1, "name" : "Body1:1"}], "scene" : 0, "scenes" : [{"nodes" : [0, 1]}]}